<svg width="52" height="52" viewBox="0 0 52 52" fill="none" xmlns="http://www.w3.org/2000/svg">

    <!-- logo -->
    <g id="logo">
        <path fill-rule="evenodd" clip-rule="evenodd"
              d="M39 0H26V13H13H0V26V39V52H13H26V39H39H52V26V13V0H39ZM13 39H26V26H39V13H26V26H13V39Z" fill="white"/>
    </g>

    <!-- switch arrow -->
    <g id="SwitchArrow">
        <path d="M3.81 4.38 8 8.57l4.19-4.19 1.52 1.53L8 11.62 2.29 5.91l1.52-1.53z" fill="currentColor"/>
    </g>

    <!-- main -->
    <g id="mainRec">
        <mask id="path-1-inside-1_1103_3692" fill="white">
            <path fill-rule="evenodd" clip-rule="evenodd"
                  d="M0 39.75H38.75H77.5V78.5H38.75V117.25H77.5V156H38.75H0V117.25V78.5V39.75Z"/>
        </mask>
        <path d="M0 39.75V38.75H-1V39.75H0ZM77.5 39.75H78.5V38.75H77.5V39.75ZM77.5 78.5V79.5H78.5V78.5H77.5ZM38.75 78.5V77.5H37.75V78.5H38.75ZM38.75 117.25H37.75V118.25H38.75V117.25ZM77.5 117.25H78.5V116.25H77.5V117.25ZM77.5 156V157H78.5V156H77.5ZM0 156H-1V157H0V156ZM38.75 38.75H0V40.75H38.75V38.75ZM77.5 38.75H38.75V40.75H77.5V38.75ZM78.5 78.5V39.75H76.5V78.5H78.5ZM38.75 79.5H77.5V77.5H38.75V79.5ZM39.75 117.25V78.5H37.75V117.25H39.75ZM38.75 118.25H77.5V116.25H38.75V118.25ZM76.5 117.25V156H78.5V117.25H76.5ZM77.5 155H38.75V157H77.5V155ZM0 157H38.75V155H0V157ZM-1 117.25V156H1V117.25H-1ZM-1 78.5V117.25H1V78.5H-1ZM-1 39.75V78.5H1V39.75H-1Z"
              fill="#d60026" mask="url(#path-1-inside-1_1103_3692)"/>
        <mask id="path-3-outside-2_1103_3692" maskUnits="userSpaceOnUse" x="76.5" y="0" width="80" height="119"
              fill="black">
            <rect fill="white" x="76.5" width="80" height="119"/>
            <path fill-rule="evenodd" clip-rule="evenodd"
                  d="M77.5 1H116.25H155V39.75V78.5V117.25H116.25H77.5V78.5H116.25V39.75H77.5V1Z"/>
        </mask>
        <path d="M77.5 1V0H76.5V1H77.5ZM155 1H156V0H155V1ZM155 117.25V118.25H156V117.25H155ZM77.5 117.25H76.5V118.25H77.5V117.25ZM77.5 78.5V77.5H76.5V78.5H77.5ZM116.25 78.5V79.5H117.25V78.5H116.25ZM116.25 39.75H117.25V38.75H116.25V39.75ZM77.5 39.75H76.5V40.75H77.5V39.75ZM116.25 0H77.5V2H116.25V0ZM155 0H116.25V2H155V0ZM156 39.75V1H154V39.75H156ZM156 78.5V39.75H154V78.5H156ZM156 117.25V78.5H154V117.25H156ZM116.25 118.25H155V116.25H116.25V118.25ZM116.25 116.25H77.5V118.25H116.25V116.25ZM78.5 117.25V78.5H76.5V117.25H78.5ZM77.5 79.5H116.25V77.5H77.5V79.5ZM115.25 39.75V78.5H117.25V39.75H115.25ZM77.5 40.75H116.25V38.75H77.5V40.75ZM76.5 1V39.75H78.5V1H76.5Z"
              fill="#d60026" mask="url(#path-3-outside-2_1103_3692)"/>
    </g>

    <!-- dots -->
    <g id="dots">
        <circle cx="2" cy="2" r="2" fill="#ABB2BF"/>
        <circle cx="22" cy="2" r="2" fill="#ABB2BF"/>
        <circle cx="42" cy="2" r="2" fill="#ABB2BF"/>
        <circle cx="62" cy="2" r="2" fill="#ABB2BF"/>
        <circle cx="82" cy="2" r="2" fill="#ABB2BF"/>
        <circle cx="2" cy="22" r="2" fill="#ABB2BF"/>
        <circle cx="22" cy="22" r="2" fill="#ABB2BF"/>
        <circle cx="42" cy="22" r="2" fill="#ABB2BF"/>
        <circle cx="62" cy="22" r="2" fill="#ABB2BF"/>
        <circle cx="82" cy="22" r="2" fill="#ABB2BF"/>
        <circle cx="2" cy="42" r="2" fill="#ABB2BF"/>
        <circle cx="22" cy="42" r="2" fill="#ABB2BF"/>
        <circle cx="42" cy="42" r="2" fill="#ABB2BF"/>
        <circle cx="62" cy="42" r="2" fill="#ABB2BF"/>
        <circle cx="82" cy="42" r="2" fill="#ABB2BF"/>
        <circle cx="2" cy="62" r="2" fill="#ABB2BF"/>
        <circle cx="22" cy="62" r="2" fill="#ABB2BF"/>
        <circle cx="42" cy="62" r="2" fill="#ABB2BF"/>
        <circle cx="62" cy="62" r="2" fill="#ABB2BF"/>
        <circle cx="82" cy="62" r="2" fill="#ABB2BF"/>
        <circle cx="2" cy="82" r="2" fill="#ABB2BF"/>
        <circle cx="22" cy="82" r="2" fill="#ABB2BF"/>
        <circle cx="42" cy="82" r="2" fill="#ABB2BF"/>
        <circle cx="62" cy="82" r="2" fill="#ABB2BF"/>
        <circle cx="82" cy="82" r="2" fill="#ABB2BF"/>
    </g>

    <!-- quote -->
    <g id="quote">
        <path d="M10.56 15.616C10.56 17.0453 10.0373 18.2507 8.992 19.232C7.968 20.2133 6.72 20.704 5.248 20.704C3.73333 20.704 2.47467 20.2133 1.472 19.232C0.490667 18.2507 0 17.0453 0 15.616C0 14.9333 0.096 14.208 0.288 13.44C0.48 12.672 0.864 11.68 1.44 10.464L6.4 0H11.2L8.544 11.584C9.14133 12.0107 9.62133 12.576 9.984 13.28C10.368 13.9627 10.56 14.7413 10.56 15.616ZM24.8 15.616C24.8 17.0453 24.2773 18.2507 23.232 19.232C22.1867 20.2133 20.9387 20.704 19.488 20.704C18.016 20.704 16.768 20.2133 15.744 19.232C14.7413 18.2507 14.24 17.0453 14.24 15.616C14.24 14.9333 14.336 14.208 14.528 13.44C14.72 12.672 15.1147 11.68 15.712 10.464L20.704 0H25.472L22.784 11.584C23.4027 12.0107 23.8933 12.576 24.256 13.28C24.6187 13.9627 24.8 14.7413 24.8 15.616Z"
              fill="#ABB2BF"/>
    </g>

    <!-- socials -->
    <g id="telegram">
        <path d="M27 15.5C27 18.55 25.7884 21.4751 23.6317 23.6317C21.4751 25.7884 18.55 27 15.5 27C12.45 27 9.52494 25.7884 7.36827 23.6317C5.2116 21.4751 4 18.55 4 15.5C4 12.45 5.2116 9.52494 7.36827 7.36827C9.52494 5.2116 12.45 4 15.5 4C18.55 4 21.4751 5.2116 23.6317 7.36827C25.7884 9.52494 27 12.45 27 15.5ZM15.9126 12.4899C14.7942 12.9556 12.5574 13.9187 9.20519 15.3792C8.66181 15.5949 8.37575 15.8076 8.34987 16.0146C8.30675 16.3639 8.74519 16.5019 9.34175 16.6903L9.59331 16.7693C10.1798 16.9605 10.9704 17.1833 11.3801 17.1919C11.7539 17.2006 12.1693 17.0482 12.6279 16.7319C15.7602 14.6174 17.3774 13.5493 17.478 13.5263C17.5499 13.5091 17.6505 13.4889 17.7166 13.5493C17.7842 13.6083 17.777 13.7218 17.7698 13.752C17.7267 13.9374 16.006 15.5359 15.1162 16.3639C14.8387 16.6227 14.6418 16.8053 14.6016 16.8469C14.5129 16.9375 14.4228 17.0267 14.3313 17.1143C13.7851 17.6404 13.3768 18.0343 14.3529 18.6783C14.8229 18.9888 15.1996 19.2432 15.5747 19.4991C15.983 19.778 16.3912 20.0554 16.9202 20.4033C17.0539 20.4896 17.1833 20.583 17.3084 20.6721C17.7842 21.0114 18.214 21.3161 18.7416 21.2673C19.0492 21.2385 19.3669 20.951 19.5279 20.0885C19.9088 18.0516 20.6578 13.6399 20.8302 11.8214C20.8408 11.6703 20.8345 11.5184 20.8116 11.3686C20.798 11.2478 20.7395 11.1364 20.6477 11.0567C20.5169 10.9664 20.361 10.9196 20.2021 10.923C19.7708 10.9302 19.1052 11.1616 15.9126 12.4899Z"
              fill="currentColor"/>
    </g>

    <g id="github">
        <path d="M15.5 6C9.69875 6 5 10.5882 5 16.2529C5 20.7899 8.00562 24.6219 12.1794 25.9804C12.7044 26.0701 12.9012 25.7625 12.9012 25.4934C12.9012 25.2499 12.8881 24.4425 12.8881 23.5838C10.25 24.058 9.5675 22.9558 9.3575 22.3791C9.23938 22.0843 8.7275 21.1743 8.28125 20.9308C7.91375 20.7386 7.38875 20.2644 8.26813 20.2516C9.095 20.2388 9.68563 20.9949 9.8825 21.3025C10.8275 22.8533 12.3369 22.4175 12.9406 22.1484C13.0325 21.4819 13.3081 21.0334 13.61 20.777C11.2737 20.5207 8.8325 19.6364 8.8325 15.7147C8.8325 14.5997 9.23938 13.6769 9.90875 12.9592C9.80375 12.7029 9.43625 11.6519 10.0138 10.2422C10.0138 10.2422 10.8931 9.97301 12.9012 11.2931C13.7413 11.0624 14.6338 10.947 15.5263 10.947C16.4188 10.947 17.3113 11.0624 18.1513 11.2931C20.1594 9.9602 21.0387 10.2422 21.0387 10.2422C21.6163 11.6519 21.2488 12.7029 21.1438 12.9592C21.8131 13.6769 22.22 14.5868 22.22 15.7147C22.22 19.6492 19.7656 20.5207 17.4294 20.777C17.81 21.0975 18.1381 21.7126 18.1381 22.6738C18.1381 24.0452 18.125 25.1474 18.125 25.4934C18.125 25.7625 18.3219 26.0829 18.8469 25.9804C20.9314 25.2935 22.7428 23.9854 24.026 22.2403C25.3092 20.4953 25.9996 18.4012 26 16.2529C26 10.5882 21.3013 6 15.5 6Z"
              fill="currentColor"/>
    </g>

    <g id="discord">
        <path d="M24.1641 7.65906C22.543 6.87826 20.8325 6.32099 19.0751 6.00114C19.0592 5.99832 19.0428 6.00076 19.0283 6.0081C19.0137 6.01544 19.0017 6.02733 18.9938 6.04214C18.7735 6.45211 18.5298 6.98835 18.3595 7.40816C16.4651 7.10643 14.5383 7.10643 12.6439 7.40816C12.4539 6.9405 12.239 6.48443 12.0002 6.04214C11.9922 6.02749 11.9801 6.01574 11.9656 6.00842C11.9511 6.0011 11.9348 5.99856 11.9189 6.00114C10.1611 6.31928 8.45021 6.87684 6.82991 7.65906C6.81605 7.66461 6.80445 7.67504 6.7971 7.68858C3.55651 12.7706 2.66745 17.7279 3.10339 22.623C3.10495 22.6459 3.11901 22.6689 3.1362 22.6836C5.02325 24.1507 7.13396 25.2708 9.37832 25.9962C9.39417 26.0014 9.4112 26.0013 9.42693 25.9957C9.44267 25.99 9.45629 25.9793 9.46582 25.965C9.94707 25.2763 10.3752 24.5498 10.7439 23.7856C10.7516 23.7699 10.7543 23.752 10.7514 23.7345C10.7486 23.7171 10.7405 23.7011 10.7283 23.6889C10.7202 23.6809 10.7107 23.6747 10.7002 23.6708C10.027 23.3993 9.37503 23.0731 8.7502 22.6951C8.73275 22.6847 8.71977 22.6677 8.71395 22.6476C8.70814 22.6274 8.70993 22.6057 8.71895 22.5869C8.72427 22.5747 8.73231 22.564 8.74239 22.5557C8.87364 22.4524 9.00489 22.3442 9.12989 22.236C9.14093 22.2266 9.15418 22.2206 9.16821 22.2186C9.18225 22.2166 9.19655 22.2186 9.20957 22.2245C13.3017 24.1858 17.7314 24.1858 21.7735 22.2245C21.787 22.2183 21.8018 22.2162 21.8164 22.2182C21.831 22.2202 21.8448 22.2264 21.8563 22.236C21.9813 22.3442 22.1126 22.4524 22.2438 22.5557C22.2544 22.5639 22.263 22.5747 22.2687 22.5872C22.2744 22.5996 22.277 22.6134 22.2764 22.6272C22.2758 22.641 22.2719 22.6544 22.2651 22.6663C22.2584 22.6781 22.2489 22.688 22.2376 22.6951C21.6142 23.0765 20.9614 23.4024 20.286 23.6692C20.2752 23.6733 20.2655 23.6798 20.2574 23.6883C20.2493 23.6968 20.243 23.7071 20.2391 23.7184C20.2355 23.7294 20.2341 23.741 20.2349 23.7525C20.2357 23.7641 20.2387 23.7754 20.2438 23.7856C20.6188 24.5482 21.0485 25.2763 21.5204 25.965C21.5299 25.9793 21.5435 25.99 21.5593 25.9957C21.575 26.0013 21.592 26.0014 21.6079 25.9962C23.856 25.2731 25.9701 24.1528 27.8594 22.6836C27.8688 22.6768 27.8767 22.6677 27.8824 22.6572C27.8881 22.6467 27.8914 22.635 27.8922 22.623C28.4141 16.9637 27.0188 12.0474 24.1954 7.69022C24.1925 7.68302 24.1883 7.67653 24.1829 7.67116C24.1775 7.66579 24.1711 7.66167 24.1641 7.65906ZM11.3549 19.6417C10.1221 19.6417 9.10801 18.4544 9.10801 16.9982C9.10801 15.5403 10.1033 14.353 11.3549 14.353C12.6158 14.353 13.6205 15.5502 13.6017 16.9982C13.6017 18.4544 12.6064 19.6417 11.3549 19.6417ZM19.661 19.6417C18.4298 19.6417 17.4142 18.4544 17.4142 16.9982C17.4142 15.5403 18.4095 14.353 19.661 14.353C20.922 14.353 21.9282 15.5502 21.9079 16.9982C21.9079 18.4544 20.922 19.6417 19.661 19.6417Z"
              fill="currentColor"/>
    </g>

    <g id="email">
        <path d="M5.07187 9.20292C5.2168 8.57709 5.57307 8.01832 6.08232 7.6181C6.59158 7.21789 7.22365 6.99996 7.875 7H25.125C25.7764 6.99996 26.4084 7.21789 26.9177 7.6181C27.4269 8.01832 27.7832 8.57709 27.9281 9.20292L16.5 16.0865L5.07187 9.20292ZM5 10.8207V20.8847L13.3418 15.8442L5 10.8207ZM14.7189 16.6758L5.27456 22.3807C5.50791 22.8657 5.87619 23.2753 6.33656 23.5619C6.79693 23.8486 7.33044 24.0005 7.875 24H25.125C25.6695 24.0001 26.2028 23.8479 26.6629 23.561C27.123 23.274 27.491 22.8643 27.724 22.3793L18.2796 16.6744L16.5 17.7468L14.7189 16.6744V16.6758ZM19.6582 15.8457L28 20.8847V10.8207L19.6582 15.8442V15.8457Z"
              fill="currentColor"/>
    </g>

    <g id="instagram">
        <path d="M13.6516 0.0999756H3.34844C1.55687 0.0999756 0.0999985 1.55628 0.0999985 3.34715V6.77799V13.6528C0.0999985 15.4437 1.55687 16.9 3.34844 16.9H13.6516C15.4431 16.9 16.9 15.4437 16.9 13.6528V6.77143V3.34058C16.8934 1.55628 15.4366 0.0999756 13.6516 0.0999756ZM14.5834 2.03516H14.9575V2.40251V4.88217L12.1159 4.88873L12.1094 2.04172L14.5834 2.03516ZM6.09812 6.77143C6.63625 6.03016 7.50906 5.53816 8.49343 5.53816C9.47781 5.53816 10.3506 6.0236 10.8887 6.77143C11.2431 7.25687 11.4466 7.85382 11.4466 8.4967C11.4466 10.1236 10.1209 11.4552 8.48687 11.4552C6.85281 11.4552 5.54031 10.1236 5.54031 8.4967C5.54031 7.85382 5.75031 7.25687 6.09812 6.77143ZM15.2594 13.6462C15.2594 14.5318 14.5375 15.2534 13.6516 15.2534H3.34844C2.4625 15.2534 1.74062 14.5318 1.74062 13.6462V6.77143H4.2475C4.03094 7.30279 3.90625 7.88662 3.90625 8.4967C3.90625 11.0288 5.96687 13.0887 8.5 13.0887C11.0331 13.0887 13.0937 11.0288 13.0937 8.4967C13.0937 7.88662 12.9691 7.30279 12.7525 6.77143H15.2594V13.6462Z"
              fill="currentColor"/>
    </g>

    <g id="bg">
        <circle cx="2" cy="40" r="2" fill="#ABB2BF"/>
        <circle cx="16.75" cy="40" r="2" fill="#ABB2BF"/>
        <circle cx="31.5" cy="40" r="2" fill="#ABB2BF"/>
        <circle cx="46.25" cy="40" r="2" fill="#ABB2BF"/>
        <circle cx="61" cy="40" r="2" fill="#ABB2BF"/>
        <circle cx="2" cy="54.75" r="2" fill="#ABB2BF"/>
        <circle cx="16.75" cy="54.75" r="2" fill="#ABB2BF"/>
        <circle cx="31.5" cy="54.75" r="2" fill="#ABB2BF"/>
        <circle cx="46.25" cy="54.75" r="2" fill="#ABB2BF"/>
        <circle cx="61" cy="54.75" r="2" fill="#ABB2BF"/>
        <circle cx="2" cy="69.5" r="2" fill="#ABB2BF"/>
        <circle cx="16.75" cy="69.5" r="2" fill="#ABB2BF"/>
        <circle cx="31.5" cy="69.5" r="2" fill="#ABB2BF"/>
        <circle cx="46.25" cy="69.5" r="2" fill="#ABB2BF"/>
        <circle cx="61" cy="69.5" r="2" fill="#ABB2BF"/>
        <circle cx="2" cy="84.25" r="2" fill="#ABB2BF"/>
        <circle cx="16.75" cy="84.25" r="2" fill="#ABB2BF"/>
        <circle cx="31.5" cy="84.25" r="2" fill="#ABB2BF"/>
        <circle cx="46.25" cy="84.25" r="2" fill="#ABB2BF"/>
        <circle cx="61" cy="84.25" r="2" fill="#ABB2BF"/>
        <circle cx="2" cy="99" r="2" fill="#ABB2BF"/>
        <circle cx="16.75" cy="99" r="2" fill="#ABB2BF"/>
        <circle cx="31.5" cy="99" r="2" fill="#ABB2BF"/>
        <circle cx="46.25" cy="99" r="2" fill="#ABB2BF"/>
        <circle cx="61" cy="99" r="2" fill="#ABB2BF"/>
        <circle cx="179" cy="145" r="2" fill="#ABB2BF"/>
        <circle cx="193.75" cy="145" r="2" fill="#ABB2BF"/>
        <circle cx="208.5" cy="145" r="2" fill="#ABB2BF"/>
        <circle cx="223.25" cy="145" r="2" fill="#ABB2BF"/>
        <circle cx="238" cy="145" r="2" fill="#ABB2BF"/>
        <circle cx="179" cy="159.75" r="2" fill="#ABB2BF"/>
        <circle cx="193.75" cy="159.75" r="2" fill="#ABB2BF"/>
        <circle cx="208.5" cy="159.75" r="2" fill="#ABB2BF"/>
        <circle cx="223.25" cy="159.75" r="2" fill="#ABB2BF"/>
        <circle cx="238" cy="159.75" r="2" fill="#ABB2BF"/>
        <circle cx="179" cy="174.5" r="2" fill="#ABB2BF"/>
        <circle cx="193.75" cy="174.5" r="2" fill="#ABB2BF"/>
        <circle cx="208.5" cy="174.5" r="2" fill="#ABB2BF"/>
        <circle cx="223.25" cy="174.5" r="2" fill="#ABB2BF"/>
        <circle cx="238" cy="174.5" r="2" fill="#ABB2BF"/>
        <circle cx="179" cy="189.25" r="2" fill="#ABB2BF"/>
        <circle cx="193.75" cy="189.25" r="2" fill="#ABB2BF"/>
        <circle cx="208.5" cy="189.25" r="2" fill="#ABB2BF"/>
        <circle cx="223.25" cy="189.25" r="2" fill="#ABB2BF"/>
        <circle cx="238" cy="189.25" r="2" fill="#ABB2BF"/>
        <circle cx="179" cy="204" r="2" fill="#ABB2BF"/>
        <circle cx="193.75" cy="204" r="2" fill="#ABB2BF"/>
        <circle cx="208.5" cy="204" r="2" fill="#ABB2BF"/>
        <circle cx="223.25" cy="204" r="2" fill="#ABB2BF"/>
        <circle cx="238" cy="204" r="2" fill="#ABB2BF"/>
        <rect x="297.5" y="193.5" width="51" height="51" stroke="#ABB2BF"/>
        <rect x="227.5" y="0.5" width="85" height="85" stroke="#ABB2BF"/>
        <mask id="path-53-inside-1_1103_3635" fill="white">
            <path fill-rule="evenodd" clip-rule="evenodd"
                  d="M71.5 169H99.75H128V197.25V225.5V253.75H99.75H71.5V225.5H99.75V197.25H71.5V169Z"/>
        </mask>
        <path d="M71.5 169V168H70.5V169H71.5ZM128 169H129V168H128V169ZM128 253.75V254.75H129V253.75H128ZM71.5 253.75H70.5V254.75H71.5V253.75ZM71.5 225.5V224.5H70.5V225.5H71.5ZM99.75 225.5V226.5H100.75V225.5H99.75ZM99.75 197.25H100.75V196.25H99.75V197.25ZM71.5 197.25H70.5V198.25H71.5V197.25ZM99.75 168H71.5V170H99.75V168ZM128 168H99.75V170H128V168ZM129 197.25V169H127V197.25H129ZM129 225.5V197.25H127V225.5H129ZM129 253.75V225.5H127V253.75H129ZM99.75 254.75H128V252.75H99.75V254.75ZM99.75 252.75H71.5V254.75H99.75V252.75ZM72.5 253.75V225.5H70.5V253.75H72.5ZM71.5 226.5H99.75V224.5H71.5V226.5ZM98.75 197.25V225.5H100.75V197.25H98.75ZM71.5 198.25H99.75V196.25H71.5V198.25ZM70.5 169V197.25H72.5V169H70.5Z"
              fill="#d60026" mask="url(#path-53-inside-1_1103_3635)"/>
        <mask id="path-55-outside-2_1103_3635" maskUnits="userSpaceOnUse" x="14" y="196.25" width="59" height="87"
              fill="black">
            <rect fill="white" x="14" y="196.25" width="59" height="87"/>
            <path fill-rule="evenodd" clip-rule="evenodd"
                  d="M15 197.25H43.25H71.5V225.5H43.25V253.75H71.5V282H43.25H15V253.75V225.5V197.25Z"/>
        </mask>
        <path d="M15 197.25V196.25H14V197.25H15ZM71.5 197.25H72.5V196.25H71.5V197.25ZM71.5 225.5V226.5H72.5V225.5H71.5ZM43.25 225.5V224.5H42.25V225.5H43.25ZM43.25 253.75H42.25V254.75H43.25V253.75ZM71.5 253.75H72.5V252.75H71.5V253.75ZM71.5 282V283H72.5V282H71.5ZM15 282H14V283H15V282ZM43.25 196.25H15V198.25H43.25V196.25ZM71.5 196.25H43.25V198.25H71.5V196.25ZM72.5 225.5V197.25H70.5V225.5H72.5ZM43.25 226.5H71.5V224.5H43.25V226.5ZM44.25 253.75V225.5H42.25V253.75H44.25ZM43.25 254.75H71.5V252.75H43.25V254.75ZM70.5 253.75V282H72.5V253.75H70.5ZM71.5 281H43.25V283H71.5V281ZM15 283H43.25V281H15V283ZM14 253.75V282H16V253.75H14ZM14 225.5V253.75H16V225.5H14ZM14 197.25V225.5H16V197.25H14Z"
              fill="#d60026" mask="url(#path-55-outside-2_1103_3635)"/>
    </g>
</svg>
