<svg width="52" height="52" viewBox="0 0 52 52" fill="none" xmlns="http://www.w3.org/2000/svg">

    <!-- logo -->
    <g id="logo">
        <path fill-rule="evenodd" clip-rule="evenodd"
              d="M39 0H26V13H13H0V26V39V52H13H26V39H39H52V26V13V0H39ZM13 39H26V26H39V13H26V26H13V39Z" fill="white"/>
    </g>

    <!-- switch arrow -->
    <g id="SwitchArrow">
        <path d="M3.81 4.38 8 8.57l4.19-4.19 1.52 1.53L8 11.62 2.29 5.91l1.52-1.53z" fill="#acb2bf"/>
    </g>

    <!-- main -->
    <g id="mainRec">
        <mask id="path-1-inside-1_1103_3692" fill="white">
            <path fill-rule="evenodd" clip-rule="evenodd"
                  d="M0 39.75H38.75H77.5V78.5H38.75V117.25H77.5V156H38.75H0V117.25V78.5V39.75Z"/>
        </mask>
        <path d="M0 39.75V38.75H-1V39.75H0ZM77.5 39.75H78.5V38.75H77.5V39.75ZM77.5 78.5V79.5H78.5V78.5H77.5ZM38.75 78.5V77.5H37.75V78.5H38.75ZM38.75 117.25H37.75V118.25H38.75V117.25ZM77.5 117.25H78.5V116.25H77.5V117.25ZM77.5 156V157H78.5V156H77.5ZM0 156H-1V157H0V156ZM38.75 38.75H0V40.75H38.75V38.75ZM77.5 38.75H38.75V40.75H77.5V38.75ZM78.5 78.5V39.75H76.5V78.5H78.5ZM38.75 79.5H77.5V77.5H38.75V79.5ZM39.75 117.25V78.5H37.75V117.25H39.75ZM38.75 118.25H77.5V116.25H38.75V118.25ZM76.5 117.25V156H78.5V117.25H76.5ZM77.5 155H38.75V157H77.5V155ZM0 157H38.75V155H0V157ZM-1 117.25V156H1V117.25H-1ZM-1 78.5V117.25H1V78.5H-1ZM-1 39.75V78.5H1V39.75H-1Z"
              fill="#C778DD" mask="url(#path-1-inside-1_1103_3692)"/>
        <mask id="path-3-outside-2_1103_3692" maskUnits="userSpaceOnUse" x="76.5" y="0" width="80" height="119"
              fill="black">
            <rect fill="white" x="76.5" width="80" height="119"/>
            <path fill-rule="evenodd" clip-rule="evenodd"
                  d="M77.5 1H116.25H155V39.75V78.5V117.25H116.25H77.5V78.5H116.25V39.75H77.5V1Z"/>
        </mask>
        <path d="M77.5 1V0H76.5V1H77.5ZM155 1H156V0H155V1ZM155 117.25V118.25H156V117.25H155ZM77.5 117.25H76.5V118.25H77.5V117.25ZM77.5 78.5V77.5H76.5V78.5H77.5ZM116.25 78.5V79.5H117.25V78.5H116.25ZM116.25 39.75H117.25V38.75H116.25V39.75ZM77.5 39.75H76.5V40.75H77.5V39.75ZM116.25 0H77.5V2H116.25V0ZM155 0H116.25V2H155V0ZM156 39.75V1H154V39.75H156ZM156 78.5V39.75H154V78.5H156ZM156 117.25V78.5H154V117.25H156ZM116.25 118.25H155V116.25H116.25V118.25ZM116.25 116.25H77.5V118.25H116.25V116.25ZM78.5 117.25V78.5H76.5V117.25H78.5ZM77.5 79.5H116.25V77.5H77.5V79.5ZM115.25 39.75V78.5H117.25V39.75H115.25ZM77.5 40.75H116.25V38.75H77.5V40.75ZM76.5 1V39.75H78.5V1H76.5Z"
              fill="#C778DD" mask="url(#path-3-outside-2_1103_3692)"/>
    </g>

    <!-- dots -->
    <g id="dots">
        <circle cx="2" cy="2" r="2" fill="#ABB2BF"/>
        <circle cx="22" cy="2" r="2" fill="#ABB2BF"/>
        <circle cx="42" cy="2" r="2" fill="#ABB2BF"/>
        <circle cx="62" cy="2" r="2" fill="#ABB2BF"/>
        <circle cx="82" cy="2" r="2" fill="#ABB2BF"/>
        <circle cx="2" cy="22" r="2" fill="#ABB2BF"/>
        <circle cx="22" cy="22" r="2" fill="#ABB2BF"/>
        <circle cx="42" cy="22" r="2" fill="#ABB2BF"/>
        <circle cx="62" cy="22" r="2" fill="#ABB2BF"/>
        <circle cx="82" cy="22" r="2" fill="#ABB2BF"/>
        <circle cx="2" cy="42" r="2" fill="#ABB2BF"/>
        <circle cx="22" cy="42" r="2" fill="#ABB2BF"/>
        <circle cx="42" cy="42" r="2" fill="#ABB2BF"/>
        <circle cx="62" cy="42" r="2" fill="#ABB2BF"/>
        <circle cx="82" cy="42" r="2" fill="#ABB2BF"/>
        <circle cx="2" cy="62" r="2" fill="#ABB2BF"/>
        <circle cx="22" cy="62" r="2" fill="#ABB2BF"/>
        <circle cx="42" cy="62" r="2" fill="#ABB2BF"/>
        <circle cx="62" cy="62" r="2" fill="#ABB2BF"/>
        <circle cx="82" cy="62" r="2" fill="#ABB2BF"/>
        <circle cx="2" cy="82" r="2" fill="#ABB2BF"/>
        <circle cx="22" cy="82" r="2" fill="#ABB2BF"/>
        <circle cx="42" cy="82" r="2" fill="#ABB2BF"/>
        <circle cx="62" cy="82" r="2" fill="#ABB2BF"/>
        <circle cx="82" cy="82" r="2" fill="#ABB2BF"/>
    </g>

    <!-- quote -->
    <g id="quote">
        <path d="M10.56 15.616C10.56 17.0453 10.0373 18.2507 8.992 19.232C7.968 20.2133 6.72 20.704 5.248 20.704C3.73333 20.704 2.47467 20.2133 1.472 19.232C0.490667 18.2507 0 17.0453 0 15.616C0 14.9333 0.096 14.208 0.288 13.44C0.48 12.672 0.864 11.68 1.44 10.464L6.4 0H11.2L8.544 11.584C9.14133 12.0107 9.62133 12.576 9.984 13.28C10.368 13.9627 10.56 14.7413 10.56 15.616ZM24.8 15.616C24.8 17.0453 24.2773 18.2507 23.232 19.232C22.1867 20.2133 20.9387 20.704 19.488 20.704C18.016 20.704 16.768 20.2133 15.744 19.232C14.7413 18.2507 14.24 17.0453 14.24 15.616C14.24 14.9333 14.336 14.208 14.528 13.44C14.72 12.672 15.1147 11.68 15.712 10.464L20.704 0H25.472L22.784 11.584C23.4027 12.0107 23.8933 12.576 24.256 13.28C24.6187 13.9627 24.8 14.7413 24.8 15.616Z"
              fill="#ABB2BF"/>
    </g>

    <!-- socials -->
    <g id="telegram">
        <path d="M23 11.5C23 14.55 21.7884 17.4751 19.6317 19.6317C17.4751 21.7884 14.55 23 11.5 23C8.45001 23 5.52494 21.7884 3.36827 19.6317C1.2116 17.4751 0 14.55 0 11.5C0 8.45001 1.2116 5.52494 3.36827 3.36827C5.52494 1.2116 8.45001 0 11.5 0C14.55 0 17.4751 1.2116 19.6317 3.36827C21.7884 5.52494 23 8.45001 23 11.5ZM11.9126 8.48987C10.7942 8.95563 8.55744 9.91875 5.20519 11.3792C4.66181 11.5949 4.37575 11.8076 4.34987 12.0146C4.30675 12.3639 4.74519 12.5019 5.34175 12.6903L5.59331 12.7693C6.17981 12.9605 6.97044 13.1833 7.38012 13.1919C7.75387 13.2006 8.16931 13.0482 8.62787 12.7319C11.7602 10.6174 13.3774 9.54931 13.478 9.52631C13.5499 9.50906 13.6505 9.48894 13.7166 9.54931C13.7842 9.60825 13.777 9.72181 13.7698 9.752C13.7267 9.93744 12.006 11.5359 11.1162 12.3639C10.8387 12.6227 10.6418 12.8053 10.6016 12.8469C10.5129 12.9375 10.4228 13.0267 10.3313 13.1143C9.78506 13.6404 9.37681 14.0343 10.3529 14.6783C10.8229 14.9888 11.1996 15.2432 11.5747 15.4991C11.983 15.778 12.3912 16.0554 12.9202 16.4033C13.0539 16.4896 13.1833 16.583 13.3084 16.6721C13.7842 17.0114 14.214 17.3161 14.7416 17.2673C15.0492 17.2385 15.3669 16.951 15.5279 16.0885C15.9088 14.0516 16.6578 9.63988 16.8302 7.82144C16.8408 7.67027 16.8345 7.51841 16.8116 7.36862C16.798 7.24776 16.7395 7.13641 16.6477 7.05669C16.5169 6.9664 16.361 6.91962 16.2021 6.923C15.7708 6.93019 15.1052 7.16163 11.9126 8.48987Z"
              fill="#ABB2BF"/>
    </g>
    <g id="github">
        <path d="M10.5 0C4.69875 0 0 4.58819 0 10.2529C0 14.7899 3.00562 18.6219 7.17937 19.9804C7.70437 20.0701 7.90125 19.7625 7.90125 19.4934C7.90125 19.2499 7.88813 18.4425 7.88813 17.5838C5.25 18.058 4.5675 16.9558 4.3575 16.3791C4.23938 16.0843 3.7275 15.1743 3.28125 14.9308C2.91375 14.7386 2.38875 14.2644 3.26813 14.2516C4.095 14.2388 4.68563 14.9949 4.8825 15.3025C5.8275 16.8533 7.33688 16.4175 7.94063 16.1484C8.0325 15.4819 8.30812 15.0334 8.61 14.777C6.27375 14.5207 3.8325 13.6364 3.8325 9.71466C3.8325 8.59965 4.23938 7.67689 4.90875 6.95918C4.80375 6.70286 4.43625 5.65193 5.01375 4.24215C5.01375 4.24215 5.89313 3.97301 7.90125 5.29308C8.74125 5.06239 9.63375 4.94704 10.5263 4.94704C11.4188 4.94704 12.3113 5.06239 13.1513 5.29308C15.1594 3.9602 16.0387 4.24215 16.0387 4.24215C16.6163 5.65193 16.2488 6.70286 16.1438 6.95918C16.8131 7.67689 17.22 8.58684 17.22 9.71466C17.22 13.6492 14.7656 14.5207 12.4294 14.777C12.81 15.0975 13.1381 15.7126 13.1381 16.6738C13.1381 18.0452 13.125 19.1474 13.125 19.4934C13.125 19.7625 13.3219 20.0829 13.8469 19.9804C15.9314 19.2935 17.7428 17.9854 19.026 16.2403C20.3092 14.4953 20.9996 12.4012 21 10.2529C21 4.58819 16.3013 0 10.5 0Z"
              fill="#ABB2BF"/>
    </g>
    <g id="discord">
        <path d="M21.1641 1.65906C19.543 0.878258 17.8325 0.320987 16.0751 0.00113909C16.0592 -0.00167518 16.0428 0.000755409 16.0283 0.00809674C16.0137 0.0154381 16.0017 0.0273296 15.9938 0.0421361C15.7735 0.452106 15.5298 0.988347 15.3595 1.40816C13.4651 1.10643 11.5383 1.10643 9.64391 1.40816C9.45393 0.940495 9.23901 0.484433 9.00017 0.0421361C8.99216 0.0274917 8.9801 0.0157372 8.9656 0.00841949C8.9511 0.00110175 8.93482 -0.00143631 8.91892 0.00113909C7.16113 0.319276 5.45021 0.876835 3.82991 1.65906C3.81605 1.66461 3.80445 1.67504 3.7971 1.68858C0.556508 6.77057 -0.332545 11.7279 0.103388 16.623C0.10495 16.6459 0.119013 16.6689 0.1362 16.6836C2.02325 18.1507 4.13396 19.2708 6.37832 19.9962C6.39417 20.0014 6.4112 20.0013 6.42693 19.9957C6.44267 19.99 6.45629 19.9793 6.46582 19.965C6.94707 19.2763 7.37519 18.5498 7.74393 17.7856C7.75162 17.7699 7.75425 17.752 7.75143 17.7345C7.74862 17.7171 7.74051 17.7011 7.72831 17.6889C7.72023 17.6809 7.71065 17.6747 7.70018 17.6708C7.027 17.3993 6.37503 17.0731 5.7502 16.6951C5.73275 16.6847 5.71977 16.6677 5.71395 16.6476C5.70814 16.6274 5.70993 16.6057 5.71895 16.5869C5.72427 16.5747 5.73231 16.564 5.74239 16.5557C5.87364 16.4524 6.00489 16.3442 6.12989 16.236C6.14093 16.2266 6.15418 16.2206 6.16821 16.2186C6.18225 16.2166 6.19655 16.2186 6.20957 16.2245C10.3017 18.1858 14.7314 18.1858 18.7735 16.2245C18.787 16.2183 18.8018 16.2162 18.8164 16.2182C18.831 16.2202 18.8448 16.2264 18.8563 16.236C18.9813 16.3442 19.1126 16.4524 19.2438 16.5557C19.2544 16.5639 19.263 16.5747 19.2687 16.5872C19.2744 16.5996 19.277 16.6134 19.2764 16.6272C19.2758 16.641 19.2719 16.6544 19.2651 16.6663C19.2584 16.6781 19.2489 16.688 19.2376 16.6951C18.6142 17.0765 17.9614 17.4024 17.286 17.6692C17.2752 17.6733 17.2655 17.6798 17.2574 17.6883C17.2493 17.6968 17.243 17.7071 17.2391 17.7184C17.2355 17.7294 17.2341 17.741 17.2349 17.7525C17.2357 17.7641 17.2387 17.7754 17.2438 17.7856C17.6188 18.5482 18.0485 19.2763 18.5204 19.965C18.5299 19.9793 18.5435 19.99 18.5593 19.9957C18.575 20.0013 18.592 20.0014 18.6079 19.9962C20.856 19.2731 22.9701 18.1528 24.8594 16.6836C24.8688 16.6768 24.8767 16.6677 24.8824 16.6572C24.8881 16.6467 24.8914 16.635 24.8922 16.623C25.4141 10.9637 24.0188 6.04738 21.1954 1.69022C21.1925 1.68302 21.1883 1.67653 21.1829 1.67116C21.1775 1.66579 21.1711 1.66167 21.1641 1.65906ZM8.35486 13.6417C7.12206 13.6417 6.10801 12.4544 6.10801 10.9982C6.10801 9.54032 7.10331 8.35305 8.35486 8.35305C9.61579 8.35305 10.6205 9.55016 10.6017 10.9982C10.6017 12.4544 9.60641 13.6417 8.35486 13.6417ZM16.661 13.6417C15.4298 13.6417 14.4142 12.4544 14.4142 10.9982C14.4142 9.54032 15.4095 8.35305 16.661 8.35305C17.922 8.35305 18.9282 9.55016 18.9079 10.9982C18.9079 12.4544 17.922 13.6417 16.661 13.6417Z"
              fill="#ABB2BF"/>
    </g>
    <g id="email">
        <path d="M0.071875 2.20292C0.216801 1.57709 0.573067 1.01832 1.08232 0.618104C1.59158 0.217889 2.22365 -4.32004e-05 2.875 6.42336e-09H20.125C20.7764 -4.32004e-05 21.4084 0.217889 21.9177 0.618104C22.4269 1.01832 22.7832 1.57709 22.9281 2.20292L11.5 9.0865L0.071875 2.20292ZM0 3.82075V13.8847L8.34181 8.84425L0 3.82075ZM9.71894 9.67583L0.274563 15.3807C0.507907 15.8657 0.876195 16.2753 1.33656 16.5619C1.79693 16.8486 2.33044 17.0005 2.875 17H20.125C20.6695 17.0001 21.2028 16.8479 21.6629 16.561C22.123 16.274 22.491 15.8643 22.724 15.3793L13.2796 9.67442L11.5 10.7468L9.71894 9.67442V9.67583ZM14.6582 8.84567L23 13.8847V3.82075L14.6582 8.84425V8.84567Z"
              fill="#ABB2BF"/>
    </g>
    <g id="instagram">
        <path d="M13.6516 0.0999756H3.34844C1.55687 0.0999756 0.0999985 1.55628 0.0999985 3.34715V6.77799V13.6528C0.0999985 15.4437 1.55687 16.9 3.34844 16.9H13.6516C15.4431 16.9 16.9 15.4437 16.9 13.6528V6.77143V3.34058C16.8934 1.55628 15.4366 0.0999756 13.6516 0.0999756ZM14.5834 2.03516H14.9575V2.40251V4.88217L12.1159 4.88873L12.1094 2.04172L14.5834 2.03516ZM6.09812 6.77143C6.63625 6.03016 7.50906 5.53816 8.49343 5.53816C9.47781 5.53816 10.3506 6.0236 10.8887 6.77143C11.2431 7.25687 11.4466 7.85382 11.4466 8.4967C11.4466 10.1236 10.1209 11.4552 8.48687 11.4552C6.85281 11.4552 5.54031 10.1236 5.54031 8.4967C5.54031 7.85382 5.75031 7.25687 6.09812 6.77143ZM15.2594 13.6462C15.2594 14.5318 14.5375 15.2534 13.6516 15.2534H3.34844C2.4625 15.2534 1.74062 14.5318 1.74062 13.6462V6.77143H4.2475C4.03094 7.30279 3.90625 7.88662 3.90625 8.4967C3.90625 11.0288 5.96687 13.0887 8.5 13.0887C11.0331 13.0887 13.0937 11.0288 13.0937 8.4967C13.0937 7.88662 12.9691 7.30279 12.7525 6.77143H15.2594V13.6462Z"
              fill="#ABB2BF"/>
    </g>

    <g id="bg">
        <circle cx="2" cy="40" r="2" fill="#ABB2BF"/>
        <circle cx="16.75" cy="40" r="2" fill="#ABB2BF"/>
        <circle cx="31.5" cy="40" r="2" fill="#ABB2BF"/>
        <circle cx="46.25" cy="40" r="2" fill="#ABB2BF"/>
        <circle cx="61" cy="40" r="2" fill="#ABB2BF"/>
        <circle cx="2" cy="54.75" r="2" fill="#ABB2BF"/>
        <circle cx="16.75" cy="54.75" r="2" fill="#ABB2BF"/>
        <circle cx="31.5" cy="54.75" r="2" fill="#ABB2BF"/>
        <circle cx="46.25" cy="54.75" r="2" fill="#ABB2BF"/>
        <circle cx="61" cy="54.75" r="2" fill="#ABB2BF"/>
        <circle cx="2" cy="69.5" r="2" fill="#ABB2BF"/>
        <circle cx="16.75" cy="69.5" r="2" fill="#ABB2BF"/>
        <circle cx="31.5" cy="69.5" r="2" fill="#ABB2BF"/>
        <circle cx="46.25" cy="69.5" r="2" fill="#ABB2BF"/>
        <circle cx="61" cy="69.5" r="2" fill="#ABB2BF"/>
        <circle cx="2" cy="84.25" r="2" fill="#ABB2BF"/>
        <circle cx="16.75" cy="84.25" r="2" fill="#ABB2BF"/>
        <circle cx="31.5" cy="84.25" r="2" fill="#ABB2BF"/>
        <circle cx="46.25" cy="84.25" r="2" fill="#ABB2BF"/>
        <circle cx="61" cy="84.25" r="2" fill="#ABB2BF"/>
        <circle cx="2" cy="99" r="2" fill="#ABB2BF"/>
        <circle cx="16.75" cy="99" r="2" fill="#ABB2BF"/>
        <circle cx="31.5" cy="99" r="2" fill="#ABB2BF"/>
        <circle cx="46.25" cy="99" r="2" fill="#ABB2BF"/>
        <circle cx="61" cy="99" r="2" fill="#ABB2BF"/>
        <circle cx="179" cy="145" r="2" fill="#ABB2BF"/>
        <circle cx="193.75" cy="145" r="2" fill="#ABB2BF"/>
        <circle cx="208.5" cy="145" r="2" fill="#ABB2BF"/>
        <circle cx="223.25" cy="145" r="2" fill="#ABB2BF"/>
        <circle cx="238" cy="145" r="2" fill="#ABB2BF"/>
        <circle cx="179" cy="159.75" r="2" fill="#ABB2BF"/>
        <circle cx="193.75" cy="159.75" r="2" fill="#ABB2BF"/>
        <circle cx="208.5" cy="159.75" r="2" fill="#ABB2BF"/>
        <circle cx="223.25" cy="159.75" r="2" fill="#ABB2BF"/>
        <circle cx="238" cy="159.75" r="2" fill="#ABB2BF"/>
        <circle cx="179" cy="174.5" r="2" fill="#ABB2BF"/>
        <circle cx="193.75" cy="174.5" r="2" fill="#ABB2BF"/>
        <circle cx="208.5" cy="174.5" r="2" fill="#ABB2BF"/>
        <circle cx="223.25" cy="174.5" r="2" fill="#ABB2BF"/>
        <circle cx="238" cy="174.5" r="2" fill="#ABB2BF"/>
        <circle cx="179" cy="189.25" r="2" fill="#ABB2BF"/>
        <circle cx="193.75" cy="189.25" r="2" fill="#ABB2BF"/>
        <circle cx="208.5" cy="189.25" r="2" fill="#ABB2BF"/>
        <circle cx="223.25" cy="189.25" r="2" fill="#ABB2BF"/>
        <circle cx="238" cy="189.25" r="2" fill="#ABB2BF"/>
        <circle cx="179" cy="204" r="2" fill="#ABB2BF"/>
        <circle cx="193.75" cy="204" r="2" fill="#ABB2BF"/>
        <circle cx="208.5" cy="204" r="2" fill="#ABB2BF"/>
        <circle cx="223.25" cy="204" r="2" fill="#ABB2BF"/>
        <circle cx="238" cy="204" r="2" fill="#ABB2BF"/>
        <rect x="297.5" y="193.5" width="51" height="51" stroke="#ABB2BF"/>
        <rect x="227.5" y="0.5" width="85" height="85" stroke="#ABB2BF"/>
        <mask id="path-53-inside-1_1103_3635" fill="white">
            <path fill-rule="evenodd" clip-rule="evenodd"
                  d="M71.5 169H99.75H128V197.25V225.5V253.75H99.75H71.5V225.5H99.75V197.25H71.5V169Z"/>
        </mask>
        <path d="M71.5 169V168H70.5V169H71.5ZM128 169H129V168H128V169ZM128 253.75V254.75H129V253.75H128ZM71.5 253.75H70.5V254.75H71.5V253.75ZM71.5 225.5V224.5H70.5V225.5H71.5ZM99.75 225.5V226.5H100.75V225.5H99.75ZM99.75 197.25H100.75V196.25H99.75V197.25ZM71.5 197.25H70.5V198.25H71.5V197.25ZM99.75 168H71.5V170H99.75V168ZM128 168H99.75V170H128V168ZM129 197.25V169H127V197.25H129ZM129 225.5V197.25H127V225.5H129ZM129 253.75V225.5H127V253.75H129ZM99.75 254.75H128V252.75H99.75V254.75ZM99.75 252.75H71.5V254.75H99.75V252.75ZM72.5 253.75V225.5H70.5V253.75H72.5ZM71.5 226.5H99.75V224.5H71.5V226.5ZM98.75 197.25V225.5H100.75V197.25H98.75ZM71.5 198.25H99.75V196.25H71.5V198.25ZM70.5 169V197.25H72.5V169H70.5Z"
              fill="#C778DD" mask="url(#path-53-inside-1_1103_3635)"/>
        <mask id="path-55-outside-2_1103_3635" maskUnits="userSpaceOnUse" x="14" y="196.25" width="59" height="87"
              fill="black">
            <rect fill="white" x="14" y="196.25" width="59" height="87"/>
            <path fill-rule="evenodd" clip-rule="evenodd"
                  d="M15 197.25H43.25H71.5V225.5H43.25V253.75H71.5V282H43.25H15V253.75V225.5V197.25Z"/>
        </mask>
        <path d="M15 197.25V196.25H14V197.25H15ZM71.5 197.25H72.5V196.25H71.5V197.25ZM71.5 225.5V226.5H72.5V225.5H71.5ZM43.25 225.5V224.5H42.25V225.5H43.25ZM43.25 253.75H42.25V254.75H43.25V253.75ZM71.5 253.75H72.5V252.75H71.5V253.75ZM71.5 282V283H72.5V282H71.5ZM15 282H14V283H15V282ZM43.25 196.25H15V198.25H43.25V196.25ZM71.5 196.25H43.25V198.25H71.5V196.25ZM72.5 225.5V197.25H70.5V225.5H72.5ZM43.25 226.5H71.5V224.5H43.25V226.5ZM44.25 253.75V225.5H42.25V253.75H44.25ZM43.25 254.75H71.5V252.75H43.25V254.75ZM70.5 253.75V282H72.5V253.75H70.5ZM71.5 281H43.25V283H71.5V281ZM15 283H43.25V281H15V283ZM14 253.75V282H16V253.75H14ZM14 225.5V253.75H16V225.5H14ZM14 197.25V225.5H16V197.25H14Z"
              fill="#C778DD" mask="url(#path-55-outside-2_1103_3635)"/>
    </g>
</svg>
